# xmcd
#
# Track frame offsets:
#	150
#	11854
#	27263
#	38233
#	47621
#	58469
#	70122
#	87839
#	104271
#	122809
#	139620
#	154749
#	164451
#	177588
#	187644
#	198019
#	211440
#	220423
#	235163
#	250783
#	264744
#	277876
#
# Disc length: 4023 seconds
#
# Revision: 0
# Processed by: cddbd v1.4PL0 Copyright (c) Steve Scherf et al.
# Submitted via: audiograbber 1.81.03
#
DISCID=3b0fb516
DTITLE=Various Artist - Party Journal Folge 2 (LP)
DYEAR=1900
DGENRE=
TTITLE0=Die Cowboys von der Ponderosa
TTITLE1=Heimweh
TTITLE2=O'Cangaceiro
TTITLE3=Viel Gold und keine Freunde
TTITLE4=Mein Schimmel, mein Banjo und ich
TTITLE5=So wie der Missouri
TTITLE6=San Antonio Rose - Cowboyhochzeit - Wenn die Sonne scheint in Texas
TTITLE7=Banjo-Benny - So Long 
TTITLE8=Red River Valley - My Old Kentucky Home - Swanee River
TTITLE9=Smokey - Don't Fence Me In - Cigarettes And Whisky
TTITLE10=Oh Lonesome Me - Das ist nur in Texas üblich - Oh Susanna
TTITLE11=Schwarze Rose aus Virginia
TTITLE12=Mit dem Wind muß ich weiterzieh'n
TTITLE13=Es Blüht eine Rose in Maryland
TTITLE14=Wasser ist mehr wert als Gold
TTITLE15=Am Lagerfeuer
TTITLE16='Ne Goldgrube ist dieser Laden
TTITLE17=Von den blauen Bergen kommen wir - Deep In The Heart Of Texas - Bonanz
TTITLE17=a
TTITLE18=Red River Prärie - High Noon
TTITLE19=Darlin' Nelly Gray - Tampico
TTITLE20=Tabak und Rum - Virginia
TTITLE21=Tennessee-Waltz - Wyoming-Walz - Tom Dooley - Apache - Geisterreiter
EXTD=
EXTT0=
EXTT1=
EXTT2=
EXTT3=
EXTT4=
EXTT5=
EXTT6=
EXTT7=
EXTT8=
EXTT9=
EXTT10=
EXTT11=
EXTT12=
EXTT13=
EXTT14=
EXTT15=
EXTT16=
EXTT17=
EXTT18=
EXTT19=
EXTT20=
EXTT21=
PLAYORDER=
